REM DIRINDEX 1\2,1\3,1\4,1\5,1\6
REM DIRNAME "folder01","folder02","folder03","folder04","folder05","folder06"
TITLE ""
FILE "Disc1Track63.mp3" MP3
  TRACK 01 AUDIO
    TITLE "3:cjc161_01532"
    INDEX 01 00:00:00
  TRACK 02 AUDIO
    TITLE "4:cjc161_01533"
    INDEX 01 00:01:12
  TRACK 03 AUDIO
    TITLE "5:cjc161_01534"
    INDEX 01 00:02:21
  TRACK 04 AUDIO
    TITLE "6:cjc161_01535"
    INDEX 01 00:03:44
  TRACK 05 AUDIO
    TITLE "0:"
    INDEX 01 00:05:57
  TRACK 06 AUDIO
    TITLE "3:cjc161_01536"
    INDEX 01 00:06:17
  TRACK 07 AUDIO
    TITLE "4:cjc161_01537"
    INDEX 01 00:07:40
  TRACK 08 AUDIO
    TITLE "5:cjc161_01538"
    INDEX 01 00:09:45
  TRACK 09 AUDIO
    TITLE "6:cjc161_01539"
    INDEX 01 00:10:67
  TRACK 10 AUDIO
    TITLE "0:"
    INDEX 01 00:13:54
  TRACK 11 AUDIO
    TITLE "3:cjc161_01540"
    INDEX 01 00:14:10
  TRACK 12 AUDIO
    TITLE "4:cjc161_01541"
    INDEX 01 00:15:27
  TRACK 13 AUDIO
    TITLE "5:cjc161_01542"
    INDEX 01 00:16:52
  TRACK 14 AUDIO
    TITLE "0:"
    INDEX 01 00:17:71
  TRACK 15 AUDIO
    TITLE "3:cjc161_01543"
    INDEX 01 00:18:32
  TRACK 16 AUDIO
    TITLE "4:cjc161_01544"
    INDEX 01 00:19:64
  TRACK 17 AUDIO
    TITLE "5:cjc161_01545"
    INDEX 01 00:20:66
  TRACK 18 AUDIO
    TITLE "0:"
    INDEX 01 00:22:24
  TRACK 19 AUDIO
    TITLE "3:cjc161_01546"
    INDEX 01 00:22:59
  TRACK 20 AUDIO
    TITLE "4:cjc161_01547"
    INDEX 01 00:24:13
  TRACK 21 AUDIO
    TITLE "5:cjc161_01548"
    INDEX 01 00:25:75
  TRACK 22 AUDIO
    TITLE "6:cjc161_01549"
    INDEX 01 00:27:29
  TRACK 23 AUDIO
    TITLE "0:"
    INDEX 01 00:31:27
  TRACK 24 AUDIO
    TITLE "3:cjc161_01550"
    INDEX 01 00:31:60
  TRACK 25 AUDIO
    TITLE "4:cjc161_01551"
    INDEX 01 00:33:25
  TRACK 26 AUDIO
    TITLE "5:cjc161_01552"
    INDEX 01 00:34:50
  TRACK 27 AUDIO
    TITLE "0:"
    INDEX 01 00:36:20
  TRACK 28 AUDIO
    TITLE "3:cjc161_01553"
    INDEX 01 00:36:53
  TRACK 29 AUDIO
    TITLE "4:cjc161_01554"
    INDEX 01 00:38:11
  TRACK 30 AUDIO
    TITLE "5:cjc161_01555"
    INDEX 01 00:39:32
  TRACK 31 AUDIO
    TITLE "6:cjc161_01556"
    INDEX 01 00:40:63
  TRACK 32 AUDIO
    TITLE "0:"
    INDEX 01 00:45:46
  TRACK 33 AUDIO
    TITLE "3:cjc161_01557"
    INDEX 01 00:46:03
  TRACK 34 AUDIO
    TITLE "4:cjc161_01558"
    INDEX 01 00:47:47
  TRACK 35 AUDIO
    TITLE "5:cjc161_01559"
    INDEX 01 00:48:49
  TRACK 36 AUDIO
    TITLE "0:"
    INDEX 01 00:50:18
  TRACK 37 AUDIO
    TITLE "3:cjc161_01560"
    INDEX 01 00:50:49
  TRACK 38 AUDIO
    TITLE "4:cjc161_01561"
    INDEX 01 00:52:21
  TRACK 39 AUDIO
    TITLE "5:cjc161_01562"
    INDEX 01 00:53:46
  TRACK 40 AUDIO
    TITLE "0:"
    INDEX 01 00:55:17
  TRACK 41 AUDIO
    TITLE "3:cjc161_01563"
    INDEX 01 00:55:52
  TRACK 42 AUDIO
    TITLE "4:cjc161_01564"
    INDEX 01 00:57:12
  TRACK 43 AUDIO
    TITLE "5:cjc161_01565"
    INDEX 01 00:59:50
  TRACK 44 AUDIO
    TITLE "6:cjc161_01566"
    INDEX 01 01:01:10
  TRACK 45 AUDIO
    TITLE "0:"
    INDEX 01 01:05:22
  TRACK 46 AUDIO
    TITLE "3:cjc161_01567"
    INDEX 01 01:05:53
  TRACK 47 AUDIO
    TITLE "4:cjc161_01568"
    INDEX 01 01:07:11
  TRACK 48 AUDIO
    TITLE "5:cjc161_01569"
    INDEX 01 01:11:32
  TRACK 49 AUDIO
    TITLE "6:cjc161_01570"
    INDEX 01 01:12:65
  TRACK 50 AUDIO
    TITLE "0:"
    INDEX 01 01:15:67
  TRACK 51 AUDIO
    TITLE "3:cjc161_01571"
    INDEX 01 01:16:25
  TRACK 52 AUDIO
    TITLE "4:cjc161_01572"
    INDEX 01 01:17:38
  TRACK 53 AUDIO
    TITLE "5:cjc161_01573"
    INDEX 01 01:18:36
  TRACK 54 AUDIO
    TITLE "0:"
    INDEX 01 01:19:53
  TRACK 55 AUDIO
    TITLE "3:cjc161_01574"
    INDEX 01 01:20:13
  TRACK 56 AUDIO
    TITLE "4:cjc161_01575"
    INDEX 01 01:21:40
  TRACK 57 AUDIO
    TITLE "5:cjc161_01576"
    INDEX 01 01:25:26
  TRACK 58 AUDIO
    TITLE "6:cjc161_01577"
    INDEX 01 01:26:53
  TRACK 59 AUDIO
    TITLE "0:"
    INDEX 01 01:30:33
  TRACK 60 AUDIO
    TITLE "3:cjc161_01578"
    INDEX 01 01:30:66
  TRACK 61 AUDIO
    TITLE "4:cjc161_01579"
    INDEX 01 01:32:12
  TRACK 62 AUDIO
    TITLE "5:cjc161_01580"
    INDEX 01 01:35:62
  TRACK 63 AUDIO
    TITLE "6:cjc161_01581"
    INDEX 01 01:37:08
  TRACK 64 AUDIO
    TITLE "0:"
    INDEX 01 01:40:67
